PathFileType	4	(X/Y/Z)	C:\Users\WrightLab\Desktop\Jo\P2_Trial14.trc
DataRate	CameraRate	NumFrames	NumMarkers	Units	OrigDataRate	OrigDataStartFrame	OrigNumFrames
100.00	100.00	       22	19	mm	100.00	98	       781
Frame#	Time	Headset_Front			Headset_Back			Headset_Left			Headset_Right			Left_Shoulder			Right_Shoulder			Sternum			C7			Left Elbow			Right Elbow			Left Wrist			Right Wrist			Left ASIS			Right ASIS			S2			Left Knee			Right Knee			Left Ankle			Right Ankle			
		X1	Y1	Z1	X2	Y2	Z2	X3	Y3	Z3	X4	Y4	Z4	X5	Y5	Z5	X6	Y6	Z6	X7	Y7	Z7	X8	Y8	Z8	X9	Y9	Z9	X10	Y10	Z10	X11	Y11	Z11	X12	Y12	Z12	X13	Y13	Z13	X14	Y14	Z14	X15	Y15	Z15	X16	Y16	Z16	X17	Y17	Z17	X18	Y18	Z18	X19	Y19	Z19	

98	0.970	45.57144	1710.62122	1745.49426	-103.94324	1452.83887	1773.61279	-96.73370	1612.76306	1739.97534				-237.45573	1129.54211	1723.12219	64.68684	1483.27197	1890.12939										372.89059	1205.48047	1911.70496				222.60263	1489.66919	1783.46582							60.10400	996.59674	2007.87085	-29.94156	482.90735	1743.68201	300.81213	589.42145	1915.87976	15.61509	128.49500	1751.08667	208.72290	185.19914	2059.00513	
99	0.980	45.38333	1710.93958	1738.99255	-103.58759	1452.54956	1767.18262	-96.75688	1612.33887	1733.05981				-236.20291	1130.12854	1717.11670	65.32452	1485.33350	1884.69299										374.03897	1206.08899	1905.06311				223.44301	1490.86182	1775.94385							62.04990	997.58423	2004.14612	-32.47820	482.10406	1745.06628	306.05136	590.83600	1906.63123	14.50428	128.18076	1750.34717	212.98790	186.02632	2049.30322	
100	0.990	45.34169	1710.54553	1732.07947	-103.05483	1453.05994	1761.88086	-96.68364	1612.48962	1729.93787				-235.41022	1130.13403	1713.39941	66.58692	1485.53271	1877.52832										374.78287	1206.48596	1898.35596	-295.21121	1001.50732	1580.46704	224.11261	1490.30359	1767.41589							63.58171	999.23138	2001.74426	-34.03504	482.64450	1747.20569	310.66656	592.99670	1896.26086	13.28187	128.46799	1750.08655	217.56264	187.76498	2040.14014	
101	1.000	45.94231	1710.93506	1726.99719	-102.35762	1453.63245	1756.70251	-96.35858	1612.40015	1722.67456				-234.58591	1130.49829	1707.87842	67.30418	1487.26697	1871.81982										375.41641	1207.90613	1893.45752	-294.27014	998.58447	1576.45032	223.72008	1491.16748	1761.13220							65.78709	1000.03070	1998.41284	-37.20404	481.28680	1751.54993	315.26141	594.27234	1885.07056	12.21180	129.09694	1749.15918	221.99393	189.00500	2030.39868	
102	1.010	45.68034	1710.82898	1720.21448	-101.27567	1452.77808	1749.56042	-95.85905	1612.29468	1718.80054				-233.84535	1130.84290	1702.57642	68.25642	1487.58899	1865.32373										376.28986	1207.95117	1885.69995	-292.86652	995.40045	1571.17615										68.16431	1001.11200	1994.93835	-38.26372	480.94351	1754.48926	318.60144	596.89233	1874.11475	11.04511	128.20457	1747.35950	226.80695	190.48412	2018.79370	
103	1.020	46.41732	1710.45825	1714.33374	-100.69524	1453.14722	1745.66870	-96.18102	1612.55310	1713.64319				-232.74002	1131.10498	1698.45691	68.90011	1489.15173	1860.05481										377.28198	1209.05188	1880.85071	-291.99295	992.71014	1568.33203	224.80638	1490.83923	1746.65247							69.97065	1002.56317	1992.47266	-39.22716	480.55182	1757.57947	322.08923	598.75488	1862.98218	10.60918	128.46283	1746.86206	232.92976	192.71254	2011.19153	
104	1.030	46.20245	1710.26343	1708.48462	-100.27158	1452.17456	1739.14929	-95.48274	1612.04114	1708.24609				-231.82819	1131.81506	1693.50317	69.97614	1488.76807	1853.18860										378.04727	1208.95581	1873.21924	-290.92831	989.59882	1564.26819	224.79044	1491.52527	1740.05298							75.83913	1005.83624	1991.36829	-40.04321	480.09543	1761.55444	323.75882	600.75531	1853.54321	9.87657	128.80606	1746.20667	238.48677	194.17982	1997.54224	
105	1.040	46.61080	1710.12671	1701.91260	-99.89787	1453.00427	1735.55945	-95.54670	1612.37415	1703.70581				-231.44345	1131.73242	1688.57141	70.52371	1489.58948	1849.26282										378.89474	1210.21216	1868.16687	-290.22104	987.37634	1560.23779										76.44332	1006.02972	1987.98071	-40.79017	479.89886	1763.95496	324.88208	602.89215	1844.09839	9.16913	129.40793	1745.18506	244.73540	194.44847	1987.01648	
106	1.050	46.74885	1710.35779	1697.00830	-99.80207	1452.69824	1731.83154	-95.87173	1612.50073	1699.21533				-232.55029	1131.79077	1687.06433	71.38569	1489.37878	1841.78369										379.55865	1210.22241	1861.36108	-289.15332	984.42865	1556.29004	225.42311	1491.13159	1726.40662							76.56361	1006.25122	1984.47339	-40.89062	480.05225	1766.87146	325.70337	603.80255	1833.93518	7.63238	129.59473	1744.13538	249.81995	195.20872	1974.01807	
107	1.060	46.43388	1710.12415	1690.79089	-99.46452	1451.38879	1726.06360	-94.82688	1612.05042	1693.87317				-231.69843	1132.00464	1682.31604	71.76579	1490.70154	1838.38879										380.86020	1210.96655	1855.58362	-288.88968	983.07184	1552.06824	341.30420	1104.05579	1660.41553							77.14943	1006.07379	1980.06641	-39.95939	480.33923	1769.27112	326.15030	605.64948	1826.41333	5.89126	129.09047	1742.56921	256.18594	195.71109	1963.30029	
108	1.070	47.15001	1709.82288	1685.31873	-98.94444	1451.84143	1722.35352	-95.37583	1611.74597	1688.54297				-231.35272	1131.95520	1677.94629	72.22843	1490.08069	1832.61060										381.29822	1211.24243	1849.74243	-288.86374	981.42999	1549.08630	340.98306	1103.81726	1655.18079							77.93886	1006.16858	1975.90869	-38.09846	479.93594	1771.18738	326.22134	607.57526	1818.48132	5.57512	129.23122	1742.18347	261.79929	193.72574	1948.28931	
109	1.080	46.59356	1709.13098	1679.31641	-99.39931	1451.04980	1718.26428	-95.52229	1611.41992	1686.00452	72.97409	1490.69653	1827.97498	-230.96411	1132.08020	1672.70325													383.71317	1211.92041	1841.45032	-288.92026	980.00781	1545.59570	340.28818	1103.99109	1647.58801							78.35497	1005.94836	1972.43164	-36.70455	479.72794	1772.68506	325.92160	608.63367	1810.85437	5.06180	129.61568	1741.64819	268.06195	193.43079	1937.12415	
110	1.090	46.64333	1708.73181	1675.24817	-98.58322	1450.22607	1713.03174	-94.99169	1610.22925	1678.57507	72.85201	1491.66895	1823.36096	-230.37213	1131.88220	1669.92249	226.15402	1490.77112	1705.18787										383.77377	1212.52515	1836.13269	-288.82617	978.79504	1542.11609	339.79303	1103.34668	1642.33093							77.50634	1004.80511	1963.94995	-35.51763	480.09457	1773.14172	325.22409	609.12659	1804.18347	4.98288	129.68115	1741.53235	273.47797	193.07999	1923.25073	
111	1.100	73.94103	1490.93237	1817.82593	-98.09814	1450.83691	1709.93640	-95.16897	1610.40930	1675.85925	46.49977	1708.52075	1668.88196	-230.26187	1132.03735	1665.41187	226.44905	1491.44568	1698.91528										384.26617	1213.13391	1831.24158	-288.64471	977.31989	1538.23657	340.17865	1102.80823	1636.74182							77.69070	1004.46954	1958.65857	-33.18324	479.53833	1774.64478	324.77084	609.77063	1799.62549	4.97428	129.81689	1741.34644	280.60336	190.99132	1911.13574	
112	1.110	46.61443	1708.21301	1664.46411	-98.56970	1450.10986	1705.73206	-95.45343	1609.74060	1670.78821	74.61807	1491.62842	1813.69666	-230.35432	1131.71729	1662.28918	226.84096	1491.23230	1695.13330										385.03540	1212.66602	1825.49475	-288.91574	977.03101	1534.87109	339.40970	1103.14709	1631.72156							78.47316	1004.29181	1953.69116	-32.13197	479.77069	1775.94604	323.49252	611.24188	1796.60876	4.38858	130.55209	1740.84229	286.85333	191.09590	1898.39966	
113	1.120	46.43639	1707.83557	1658.73145	-98.17458	1449.68274	1701.85168	-95.43829	1609.16089	1666.84338	74.42411	1491.44287	1808.89209	-230.13466	1131.11267	1660.25159	226.14151	1490.75659	1688.69360										385.72644	1213.08679	1820.87830	-288.97125	976.93616	1531.11841	339.36871	1103.07947	1627.86438							78.92068	1004.60187	1949.82214	-30.78431	479.80911	1777.59558	322.51642	611.55896	1792.76794	5.01786	130.72278	1741.36658	292.80875	187.43251	1882.79944	
114	1.130	75.38371	1492.16931	1804.23840	-97.84445	1449.68762	1699.08801	-95.05469	1608.92834	1662.38379	46.20890	1707.57129	1654.45471	-229.80217	1131.35718	1656.45911	226.29753	1490.46252	1684.94153										386.05020	1213.57178	1816.21765	-289.49789	976.50488	1529.28333	338.77902	1102.81287	1623.58496							79.17348	1004.63837	1946.05981	-29.11889	480.46503	1777.42883	321.00845	611.78003	1790.47095	5.36692	130.87303	1741.90894	298.95523	186.08215	1865.50952	
115	1.140	46.03837	1707.02332	1649.13696	-98.14471	1448.90186	1695.38391	-95.43297	1608.32019	1657.24695	75.64054	1492.20764	1800.81250	-229.94968	1131.72632	1652.80725	226.25766	1490.66968	1679.59167										386.02826	1213.52710	1812.00195	-289.34238	976.27032	1525.73083	338.43207	1102.58545	1619.58435							90.37650	1014.98163	1961.98218	-27.79377	480.25131	1779.02673	319.03857	612.40564	1787.31299	6.05708	131.19548	1742.37842	302.33820	183.35034	1852.14697	
116	1.150	45.15756	1706.74646	1646.04370	-98.07195	1448.74182	1691.70728	-95.48608	1608.06653	1655.03162	75.64700	1492.28052	1796.07288	-230.05141	1131.78357	1649.80737	226.57970	1490.53613	1675.87610										388.26627	1214.43176	1808.12537	-289.96442	976.76288	1523.08728	338.12985	1102.47449	1615.60632							91.14388	1016.60248	1960.63635	-26.98349	480.74484	1780.00549	317.52191	612.18250	1785.48401	6.53537	131.38202	1743.42468	307.38293	180.48419	1839.32715	
117	1.160	77.02969	1492.47534	1792.07666	-97.24433	1448.72437	1688.62476	-96.01364	1606.91406	1650.08374	45.20782	1705.84827	1640.47668	-229.78006	1131.95044	1646.99280													387.44931	1213.96497	1803.45337	-290.38660	976.83954	1521.45874	337.63776	1102.81177	1611.08899							92.18238	1017.24213	1958.66309	-25.95180	480.75067	1780.17664	315.11798	612.14868	1783.55823	7.11570	131.18248	1744.11414	311.67386	177.54723	1822.74011	
118	1.170	44.64417	1705.88074	1637.13208	-97.09126	1448.44385	1686.18994	-96.08736	1606.64270	1646.97205	77.44941	1492.41602	1788.49292	-229.86803	1131.64685	1645.90161	226.78043	1489.98926	1666.53467										387.62808	1213.62451	1798.88037	-290.45547	976.66803	1518.62024	337.58902	1102.41809	1607.72986							93.51211	1017.92419	1956.13367	-24.74690	481.07126	1781.15491	313.60056	610.89697	1783.64978	7.63830	131.57315	1744.85889				
119	1.180	44.49959	1705.15540	1631.89111	-96.97945	1448.14307	1681.55908	-95.85252	1605.71252	1643.12927	77.49098	1492.56946	1784.66895	-228.19768	1131.41028	1641.12219	226.83121	1489.38391	1662.15393										387.94550	1213.97925	1795.32568	-290.94046	977.51080	1516.66956	336.84729	1102.14929	1604.67456							94.54054	1019.19019	1954.75598	-22.52152	481.96048	1779.74622	311.72546	609.40149	1782.12195	8.41628	131.85349	1746.85681	319.94647	172.21606	1791.24731	
